<?xml version="1.0" encoding="utf-8"?>
<!DOCTYPE svg PUBLIC "-//W3C//DTD SVG 1.0//EN" "http://www.w3.org/TR/2001/REC-SVG-20010904/DTD/svg10.dtd">
<svg version="1.0" xmlns="http://www.w3.org/2000/svg" width="2215px" height="1694px" viewBox="0 0 2215 1694" preserveAspectRatio="xMidYMid meet">
 <g fill="param(fill) #FF0000">
  <path d="M1619.7 1648.3 c-13.6 -107.4 -26.1 -199.8 -28.7 -211.8 -1 -4.6 -1.6 -5.3 -6.7 -8.4 -6.8 -4.1 -23.3 -19.9 -31.6 -30 -14.1 -17.6 -28.6 -43.3 -36.2 -64.4 -15.1 -42.1 -16.4 -86.8 -3.8 -131.2 3.3 -11.7 7.6 -19.7 14 -26.2 8.5 -8.4 19.8 -13.9 33.8 -16.4 6.2 -1.1 6.8 -1.4 9.2 -5.3 1.5 -2.2 4.3 -6.4 6.4 -9.3 l3.8 -5.1 -6.2 1.4 c-18.9 4.4 -40.7 14.1 -54.7 24.5 -16.3 11.9 -33.9 31 -47.2 50.9 -3.1 4.7 -11.8 18.6 -19.4 31 -46.2 75.9 -84.6 125.7 -125.4 162.5 -64.9 58.6 -134.2 90.2 -217.8 99 -88.3 9.4 -199.4 -11 -283.7 -52.1 -95.2 -46.3 -163.9 -120.9 -198 -214.9 -25 -69 -31.5 -148.7 -18.4 -227 14.8 -88.7 65.6 -172.1 144.1 -236.7 l7.7 -6.3 -12.2 -0.8 c-6.7 -0.4 -27.9 -0.6 -47.2 -0.3 -39.2 0.5 -52 1.5 -117.5 9.6 -70.3 8.6 -88.9 10.1 -124 10.1 -25.9 0 -40.5 -0.9 -58.5 -3.7 -73.9 -11.5 -131.1 -49.1 -178.7 -117.6 -8.4 -11.9 -24.8 -38.8 -77.8 -126.8 -64.5 -107.2 -94.2 -163.1 -116 -218 -23.8 -59.8 -32.8 -111.6 -27.5 -157.2 2.6 -22.6 6.2 -36.2 18.5 -69.8 19.2 -52.8 37.2 -86.5 50.9 -95.2 5.3 -3.3 11.8 -4 10.6 -1 -3.6 9 -15.2 46 -18.3 58.7 -8 31.8 -11 50.7 -11.9 75.1 -0.7 20.7 0.4 31.2 5.7 52.1 10.3 40.4 29.2 88.7 54.8 139.8 38.2 76.5 85.3 146.6 146.5 218 14.7 17.1 50.1 52.6 61.7 61.9 49 39 91 50.1 177.1 46.7 40.4 -1.5 52.6 -2.7 112.5 -11.1 57.5 -8.1 91.3 -11 125.9 -11 66.4 0 129 12 196.7 37.5 l16.8 6.4 25.3 -6.4 c25.2 -6.4 48.2 -11.3 63.2 -13.5 l8 -1.2 13.5 -13.2 c58.1 -56.8 166.5 -154.6 209.5 -189.1 120 -96.2 249.7 -134.6 373.5 -110.4 102.6 20.1 205.5 83.1 272.2 166.7 28 35.2 51.2 78.5 62.3 116.3 3.7 12.8 7.6 30.5 9.7 44.4 2.1 14.2 1.8 58.9 -0.6 74 -8 51.4 -30 101.3 -65.3 147.8 -4.1 5.5 -7.1 10.2 -6.7 10.7 0.5 0.4 5.9 2.2 11.9 4 91.9 26.9 170.9 82.1 230.1 160.6 35.8 47.6 56.7 106.8 59 167.5 2.2 57.8 -14.7 111.2 -49.4 155.3 -14.7 18.9 -43.2 44 -66.4 58.5 -47.5 29.9 -90.4 44.1 -132.8 44.1 -77.1 0 -151.7 -46.6 -184.5 -115.2 -6.6 -13.8 -8.5 -19.5 -22.5 -66.8 -16.4 -55.2 -27.7 -87.8 -31.4 -90.9 -1 -0.9 -1.4 2.8 -2 18.2 -1.8 52.5 -9.9 90.5 -26.1 122.7 -15.4 30.8 -37.2 52.8 -65.5 66.2 -4.7 2.2 -8.6 4.1 -8.7 4.2 -0.2 0.2 -1 19.3 -1.8 42.7 -2.4 69.5 -1.9 132 1.8 199.7 0.7 11.6 1 21.2 0.7 21.2 -0.3 0 -3.2 -20.6 -6.3 -45.7z m339.8 -332.4 c5.3 -2.5 15.7 -13.3 20.4 -21.3 4.2 -7 6.6 -15.7 8.1 -28.4 2.5 -21.6 -3.4 -45.5 -16 -64.3 -6 -9 -19.9 -22.4 -30.1 -29.2 -27 -17.9 -71.4 -31.1 -114.9 -34.2 -5.2 -0.4 -10.4 -0.9 -11.5 -1.2 -1.1 -0.3 2.7 4.3 8.5 10.3 21.9 22.7 37.6 46.7 60.1 92.1 9.9 20 17.9 34.6 23.9 43.6 19.2 29 36.2 39.8 51.5 32.6z m-872 -33.8 c30.2 -7 60.2 -32.4 136 -115.1 86.7 -94.6 135.7 -142.2 181.3 -175.9 3.9 -3 7.2 -5.7 7.2 -6 0 -0.3 -5.6 -2.1 -12.5 -3.9 -6.8 -1.9 -24 -7 -38.2 -11.3 -121.2 -37.5 -212 -55.4 -292.3 -57.5 -102 -2.8 -169.6 25.6 -198.7 83.5 -19.7 39.1 -21.9 101.7 -5.3 152.3 22.6 68.9 82.6 119.8 157.8 133.7 15.3 2.9 15.7 2.9 36.7 2.6 14.9 -0.3 20.9 -0.8 28 -2.4z m585.5 -480 c41.9 -7.4 68.1 -28.7 77.2 -62.6 2.9 -10.8 3.1 -37.6 0.5 -50.8 -13.8 -68.9 -82.9 -123.1 -176.2 -138.3 -13.6 -2.2 -53.7 -3 -69.2 -1.4 -74.1 7.5 -142.6 40.7 -201.2 97.5 -15.2 14.8 -29.5 30.5 -28.5 31.4 0.5 0.4 6.3 2.7 12.9 5 21.5 7.7 46.4 18.9 77.5 34.9 54.6 28 71.4 35.9 104 48.7 50.2 19.8 96.8 32.3 136.5 36.4 5.5 0.6 11.6 1.3 13.5 1.5 9.2 1.1 41.9 -0.3 53 -2.3z"/>
 </g>
</svg>
